<?xml version="1.0" encoding="UTF-8"?>
<svg xmlns="http://www.w3.org/2000/svg" viewBox="0 0 494.276 532.918" width="494" height="533" role="img" aria-label="Einzugsgebiet Juventa">
  <title>Einzugsgebiet: Baden-Baden, Landkreis Rastatt und Gernsbach</title>
  <g id="region-rastatt" class="uj-map-region" data-loc="rastatt">
<path id="Landkreis_Rastatt" d="M412.04,451.87l-14.322,4.291-3.344-1.432-1.43,1.432v1.437l-.957,1.43v5.727l.957,1.437.951,3.342-6.207,3.814v2.393l.957,1.432-3.82,1.43-2.867,1.43-3.34.48-1.432,1.43-4.295.482-.957,1.904v1.437l.957,1.912-2.867.947-1.908.482h-3.818l-2.387,1.428-1.912-1.428-.48,1.91,1.914,1.43.479,1.432.475,2.383,1.432,1.439,3.82.475v1.91l-1.434,1.43-2.865,1.437-.477-.478-2.865.478v.951l-7.162,1.435-.479.957-3.34,1.432-3.34,2.383h-.955l-1.912,2.387-4.297-.475-1.43-.473-2.391,3.342-2.863,1.43-.478-1.43-1.434-.482-.951,1.43-2.391-.473-1.908-.957-1.912,1.912-3.82-.482-1.43.957-2.391-.473-3.816.473-1.908,1.439-1.434-.482-3.342-.473c-18.508-6.357-6.715.131-22.441-3.344l-2.385-1.436-.479-1.904c-7.774-5.439-10.734-13.42-22.438-14.33l-.957-.473-3.82.957-1.434-1.43,2.391-1.437,5.725-2.385,3.818.471.959.959,9.072,3.34.955-7.154-1.434-.482-3.34-.947-4.297-1.912-4.295-.482,1.434-6.682,3.818.955,1.908-3.342v-2.383l.476-1.912v-.959l.479-1.91v-1.904l-.479-5.252-4.295-.957-6.205-1.91-1.434,4.779h-1.908l-2.387-1.439-1.432-.473-.955-.48h-7.16l-1.912-.475-3.82.475h-2.863l-.959.955-2.863-3.814-1.912-1.912-5.727-4.769-5.729-5.734v.48h-.479l-1.43,1.43-1.436-1.43h-.953l-.959.475h-.476l-.953.955h-1.434l-.479.475-.476-.475-2.865-.955h-.478l-3.34-1.43,1.436-3.344,1.43-2.867-.479-.473-.951.473h-.479l-.479-.473h-.955v-.957l-3.342-3.34-.476-.959h-.957l-.951-.482h-.479l-.478.482-.477-.482-.479-.955-.479-.475v-.473l-.955.473h-.475l-.478-.473h-.479v-1.91h-.477l-.48-.482h-.477l-.479-.475h-.478l-.479-.473-.473.473v-.473l-.479.473-.477-.473h-1.912l-.475.473-.475-.473h-.959l-.955-.957h.477v-.48l.479-.473v-.48l.48-.475,1.428-.957.478-.473-2.387.473-1.912-.473-1.43,2.385-3.344.473h-1.43l-.957-1.43v1.43l-.479.957-1.43-.957-.955.957-1.912,3.342-.953,2.385-4.295-1.432-1.912.475-1.91-.475-1.434-.955-2.387-.475-.478-.955-1.434-1.432-.955-2.867-.957.475-.473-1.434h-3.818l-1.434-.471-.479-1.439-.957-.955v-.957l-1.43-.949-.955-.957-1.912-.957v-1.43l-1.43-2.394-1.435,1.441h-1.43l-.957-4.299-1.912.475-7.16-8.594,1.434.48v-2.393l-6.207-.949-.957,2.861-1.43.48h-1.434v-1.912l.478-1.43h-1.908v-.955h-2.391l-.477-1.439-2.385.955-.957.957-4.773-2.867-.479.959h-1.908l-.479-.959h-4.295l-.957.959-3.34.953-.957-.473.48-3.824,1.91-.471,1.908-1.432-.951-3.35-1.912-.473-1.908-.957-1.912.957-.955.957-8.119,2.387-.949-1.43v-1.441l1.906-6.201-4.297-1.436h-.955l.477,1.91-.477.955.955.959-.479.957,1.436,1.428-1.912,2.385-3.34-4.769-2.387-.959-5.252-2.385h-5.254l-2.863-.955-1.908-.959-3.818.482-1.434.475-3.342.475-.479-.951-3.82-1.912-.955-3.34,2.387-2.394,1.908-2.385.479-2.859h1.434l.953-1.912h2.867l3.818-1.432,1.43-.955-3.342-4.779,2.391-1.902-4.299-1.439-3.82-.955,1.43-4.769-1.43-1.428-2.387-1.912-5.728-3.342-3.818-.957-6.228-1.282,3.288-7.867,1.858-5.481,1.217-5.76-.308-3.961c1.219-8.791-1.457-20.454,5.69-27.42l4.477-2.652,5.279-.955c14.277,2.656,21.32,5.895,30.076-1.912l.955-.475,2.387-2.869,1.912-4.771c5.679-54.798,24.238-.347,50.391-37.687l2.861-3.683,3.563-3.139,4.295-3.667,3.717-4.435,3.92-6.115c4.686-13.357,3.98-30.381,9.645-42.488l2.173-6.801,1.674-5.008c5.486-15.223,11.724-35.365,20.819-48.824l2.667-3.995,2.648-4.315,2.839-3.172,4.322-5.846c6.971-9.93,13.866-18.468,20.766-28.742l2.558-5.558,3.367-5.701,1.5-2.822.985-2.33,1.857-2.515,1.434-2,1.43-2.333,3.164-4.37,3.999-4.116,3.816-2.385,3.042-1.912,11.208-4.075,10.576-3.475,4.295-1.526,21.01-16.232-3.342,15.283.953,2.387.955.473v2.385l-.477,1.912v.959l-.953,2.385v2.869l2.387,1.912,1.912-.482h2.385l1.912.955,1.91,1.912.476,3.34,5.252,1.432,5.729,1.437.477.947,4.297-.473,3.82.955-.957,3.816,3.82-.957,2.389-1.9,2.385-.484,5.256.955,3.34,1.912,5.252,3.816,8.59,5.254,4.773,1.912,4.773,3.34,5.733,2.387,4.297,1.912-.479,1.43v2.394l-1.434,1.902-1.912,3.824-1.908,4.297-26.734-.482-14.326,10.031-3.342,1.904,2.863,4.297-3.816,3.34,1.434,1.435-2.865,3.342,1.432,1.432-3.342,2.867,2.389,4.297,1.43,3.814v1.438l-2.385,2.859-2.869,3.34-2.383,3.342,1.912-.475,1.43,2.869.479-.482,1.434,2.867,2.385.957,2.389,3.342,1.43,3.816,1.434,6.682,1.432,4.777,2.867,3.816-3.342,2.394,6.684,6.682,3.34.475,4.297,3.34,3.82-3.816v.957l3.82-.957,1.434,2.387.951,1.43.479,1.912,2.389,2.383,3.818,1.914,2.387,2.385,3.82,1.43,1.432.957,2.387,2.867,1.434.957.955.955.957,2.857,1.908.959,2.863.482-1.908-2.387-1.912-.482-1.908-3.34,3.818-9.07,3.82-1.91,4.774-1.432,4.773-.955,4.774,2.385,2.391,2.869,4.291,1.904,1.434-3.342,4.297-3.816.479-.957,2.863-1.437,3.82-.947,4.295,4.295c5.68,9.992,4.98,18.828,5.252,29.117v2.393l-1.912.475h-2.863l-.955-1.914h-1.432v2.869h-2.389l-1.43-.957-2.869-1.43-1.906.473-1.914-.957-2.863-4.769-1.434,1.43-.479.955-1.908-1.91-1.434.482-3.82,1.428-.479-.473,2.867-2.869-.479-.955v-2.387l-2.389-.955.957-.475-1.43-1.912-2.389.957h-2.387l-1.912-.482-2.385-.959-1.912.959h-1.432l-.478.482,2.863.955,4.775,2.859,1.432,1.439v.947l-.953,2.867.479,1.912-.479,1.43,1.43-.957c14.645,3.98,2.375,8.852,21.01,10.506l1.91,1.912-.955,3.34v2.859l.955,2.867,3.342,3.342v4.297h-3.818l-3.82-.473-1.912-.957-1.432-1.437v2.394l-.957,4.295-3.82,2.861,11.459,3.822,2.863,3.34,7.16,6.682,3.82.473,1.434.957,2.865.957-.479,2.867-.951,2.867.477,1.902,1.43,1.914-1.43,2.385,2.387,1.912.479,2.865,2.863,1.432.48,3.34.479,1.43-.959,1.912,1.434,1.912v1.914l-1.434,2.385-1.428,1.912-.479,2.383v3.344l-.479,3.34-2.389,1.912-1.908,1.904-2.391.955-.951,2.867.473,2.387v7.164l.478,2.859,2.391-.949,4.297-1.436,3.818-2.861,3.342-2.865,4.297-2.867-.479-5.252,2.387-2.385,2.867-1.43,4.297-.473,2.385-.482,1.912-1.43.953-1.912,2.863-1.43h2.391l.955.475,1.908,1.912,3.34.473,2.869.48,1.906.957,1.436,1.902.955,2.869,2.387.955.953,1.434-.477,2.383-.957.482-.479,3.342.479,1.43-.955,2.869-.479,1.912-.953,2.385-1.432,1.43-.479,4.781-2.385,2.857-2.389,2.387.957.482v4.295c3.088,10.047.873,7.459-3.342,15.275l-10.5.959-.959,2.385.959,11.935.951,2.383,1.432.957,1.908,3.822,1.912,2.385-2.387.959-1.912,1.428-3.818,1.43-5.73-.955-.953-2.387-1.912.482-3.34,2.857-3.818,2.395,3.818,3.814,3.34,7.166v10.498l-.951,9.074-1.912,7.156,1.912,2.385v2.393l-1.434,3.816-1.434,1.91-1.432-.957-1.91-.955-1.435-1.432-.477-.957-2.387.475-1.906.48-2.391.475.479,1.435-.955,1.432,4.295,1.91.959,1.432v2.385l-.959,3.34-3.34,3.822-.479,2.387-.476,1.912-2.865-.48-4.295.48-2.387-1.437-1.912-1.432-1.43,3.342-1.434,2.385.477.959-.477,1.436-3.789.961Z" fill="rgba(47, 91, 92, 0.16)" stroke="rgba(47, 91, 92, 0.16)" stroke-width="1"/>
  </g>
  <g id="region-baden-baden" class="uj-map-region" data-loc="baden-baden">
<path id="Baden-Baden" d="M196.247,257.079l-.479-1.912-3.34-3.34,15.277-13.846,1.912-5.246-1.912-.957-.953.957-.957-1.439,1.43-2.857,2.865-4.297,1.432.957.957-1.437-1.434-1.43,2.867-4.779-3.346-1.904,3.824-1.437-.957-.947,20.529-19.1.951,1.43,1.434.955,2.865.482.475-1.437,1.914,3.34v4.295l3.342-.955.477-1.43.953.48,3.344-.955v1.904l.479,3.34,2.383.482.957.955,1.908,1.43,2.389-1.43-.477,2.387,1.904,1.43.959,3.34c4.168,4.072,8.705,7.281,13.367,10.504l5.727,2.869,2.391,3.342c-.631,4.932,5.375,8.453,3.816,13.363l-.953,2.869-.48.957,3.82-.482.957-.955,1.908.955,2.389-1.912,1.908-.947h1.912l1.908.475,1.434.473v2.395l-.955,2.385,1.912,3.342,1.43.953.479,3.816,2.387.959.953-1.912.955.48v-1.912l1.434-1.432.479.475,2.863-1.428-.477,1.428,1.434,1.437h1.908l2.391-.482,1.906,1.43-1.906,1.912-2.869,2.385.957.955-1.432,1.914c4.127,9.277-4.146,12.455-8.119,19.1l-.475,2.859,1.908,1.912,1.912,4.771-.479,2.869.479,1.912,2.865.955,1.91-.48h1.908l2.387,3.824h.479l1.912,2.387.955,1.912.953,3.34v2.385l.955.475,1.912,1.912,1.43,2.867h2.865l4.295,1.912.957,2.861,1.434,1.914,1.908,7.637.955,1.428-.955,2.394-.475,3.816c1.785,8.959.108,19.115-2.389,27.693l-1.434,1.904-1.908,2.393h-1.434l-4.77.949-1.434.957-1.912,2.391-2.865,2.387-1.912.959-.951,1.43v1.91l.951,4.771,1.436,2.869-5.25,5.727-3.824,1.43-1.43,2.392-2.389,2.859-1.908,1.912-2.863,1.43-1.436,1.91-2.385,3.342-1.912-.473-3.342-.48c-15.086.529-.691,1.99-16.232,0l-3.82,1.437-2.863,1.43c-10.734-2.904-7.449-2.418-7.639-11.935l-.479-.955.951-2.869-2.385-2.385h-.957l.477-2.387v-1.91l.48-3.342.479-4.297-.959-.955h-2.863l-.957-.957-.477-.949.477-2.394,1.436-1.43,1.906-1.428,1.434-2.395-.959-3.342-7.16,5.252.479.957h-1.912l-2.383-.957-1.912-2.859-.479-.482-.475-.957-1.434-.955-.955-1.43.955-4.771-.479-.957-2.383-.957-.957-.955-.479-1.43h-.955l-2.387.475-1.434-.475.48-.482.479-.953-1.435-1.904h-1.428l-.476-1.912-.959-1.912h-.955l-.473.482v1.9l-1.434.482.476-5.252-1.434-2.867-1.908,2.385.475.957-3.34.484-3.34,1.43-.957-.475-2.385,1.904v.957h-2.387v-.957l-2.389-1.428-.477.482-1.434-2.394-1.91-2.385-.957.482-2.863-.482-2.385-1.428-1.434.473v1.912l-5.252-1.912-.475.482-1.912-.955-1.434,2.859-6.68-3.342-5.732-2.385-5.726-5.252-7.637-1.43-3.818-1.43.479-4.297-5.254,1.43.478-2.385h2.385l3.82-3.34,1.434-1.912,2.387,1.912,1.912-2.869,1.906-1.43,1.436,1.912-1.908,5.244,3.34.482,1.908,1.428.955-.955,3.82,1.912.959-1.43-.48-1.437.48-.949,1.904-1.438.479-1.43v-3.822l.959-.949.475.473,1.432-1.912,1.914-2.385.477-1.43h-1.434l1.434-1.439,1.906-1.43,2.869-.955.951.478.479.475,2.389,1.43,1.908-.473.479-1.432h.957l1.906.951.479.482,1.434.955,3.82-.482.479.482h1.908l1.912.957,1.908.473.479-.473,2.387-.957h2.387l.955-1.435,1.908.482,1.912.955h1.908v-1.912l-2.387.475.957-.949-2.867-.48-.477-.957h-.475l-.955,1.437-.957-.957.957-1.912v-1.912h2.385l2.389-.957,1.43-.957,1.912-1.43,2.863-1.428h5.254l1.432-.959v-4.295l.953-1.912-1.428-3.34-.479-2.869-1.912-1.43-2.385-1.912-.479-3.342-4.775-2.387-.479.959-1.908-1.43h-.957v-1.914l-.476-1.912-1.912-1.912-.475-3.34-2.391-1.904-1.43-1.912v-1.912l-1.912-1.914-1.908-1.428-2.387-.955-3.342-.957-8.596-.957-.477-.473h-1.908l-.479-.482.479-1.428-1.443.953Z" fill="#2F5B5C" stroke="#2F5B5C" stroke-width="1"/>
  </g>
  <g id="region-gernsbach" class="uj-map-region" data-loc="gernsbach">
<path id="Gernsbach" d="M337.871,358.123l-.479-3.824,1.43-5.727v-5.252l-.951-3.342.473-3.816.957-2.395-.957-1.428-1.908-7.639-1.434-1.912-.955-2.861-4.295-1.912h-2.865l-1.43-2.867-1.912-1.912-.957-.475v-2.385l-.951-3.34-.957-1.912-1.912-2.387h-.477l-2.387-3.824h-1.908l-1.912.48-2.863-.957-.478-1.912.478-2.867-1.912-4.771-1.908-1.912.481-2.859,2.863-3.824,1.906-1.912,1.914-2.387h1.432l1.908,1.43,5.731,1.912.473,1.912,1.912.475,2.385.48,1.434-.955,3.342-.475,2.391-.48h3.82l3.34-2.387v-2.865l.478-1.428v-1.914l1.43-.475,1.912.475,4.773-2.385.953,1.43,1.434-1.904,3.34,2.387,3.342.475,1.912,2.385,5.726-1.43,3.344-2.387,10.978-2.867,3.342-4.299h1.914l5.25-1.9-1.908,3.34-2.869,3.34-.951,1.904-1.434,3.35.957,1.904.477,3.34.951,3.822,1.912,4.771,1.91,2.867,1.434,3.34.479,2.869h3.342l6.682.473,5.252.957,2.865.475,2.867.955.953,2.867.477,2.867.957,2.387,1.434,2.385,1.908,1.912,1.912,2.387,3.342,2.865,1.908.951,2.391-.951,4.297-1.436,3.818-2.859,3.342-2.867,4.297-2.867-.478-5.252,2.385-2.385,2.869-1.43,4.295-.473,2.387-.482,1.912-1.43.951-1.912,2.869-1.43h2.383l.957.475,1.908,1.912,3.34.473,2.867.48,1.908.957,1.434,1.904.957,2.867,2.387.955.953,1.434-.479,2.383-.955.482-.478,3.342.478,1.43-.957,2.869-.477,1.912-.953,2.385-1.432,1.432-.478,4.779-2.387,2.857-2.387,2.387.955.482v4.295c3.088,10.047.875,7.459-3.342,15.277l-10.5.957-.957,2.385.957,11.936.953,2.385,1.432.955,1.914,3.822,1.908,2.387-2.387.957-1.912,1.428-3.82,1.43-5.725-.955-.957-2.387-1.912.482-3.34,2.857-3.82,2.394,3.82,3.814,3.34,7.166v10.498l-.951,9.074-1.912,7.156,1.912,2.385v2.393l-1.434,3.816-1.436,1.91-1.43-.957-1.912-.955-1.434-1.43-.473-.959-2.389.475-1.906.482-2.391.473-1.908-1.904-3.34-2.391-3.82-1.432.475-4.297-.475-4.297-1.434-2.383-1.434-4.297-1.908-2.385-.957-2.869-1.912-4.295v-3.342l1.435-8.596v-2.383l-2.387-5.727-1.434-2.394.479-1.904v-1.437h-4.299l-2.387-1.904-1.432-4.295-2.385-4.297-4.297-5.734-1.434-2.385-2.387-1.43-1.912-2.869-2.385-2.859h-1.912l-1.43-1.437,2.383-2.387v-2.867l-2.863-1.43-1.912-.473-1.906-2.387-1.914,3.34-5.252-2.394-.475-.947-4.295-.482-1.912.482-2.865-2.393-.957-1.904-1.432-1.912-2.387,1.912-2.387.949-4.297,6.689-3.82,4.297-5.73,4.771-.955,2.385-1.43,1.432-2.387,9.084h-.951" fill="#BE8871" stroke="#BE8871" stroke-width="1"/>
  </g>
</svg>
